<svg width="399" height="400" viewBox="0 0 399 400" fill="none" xmlns="http://www.w3.org/2000/svg">
<path d="M358.5 0V49.5L354 71.5L337 102.5L315 126.5M341.5 0V49.5L337 76.5L311.5 106L303.5 125.5L299 142M321.5 0V49.5V67.5L294.5 102.5V126.5L290 150.5M299 0V49.5L290 76.5L276.5 97.5L285.5 126.5V152.5L273 189M281 0V49.5L268.5 71.5L264 102.5L276.5 135.5M259.5 0V49.5V76.5L249.5 102.5L264 126.5L273 167M242 0V49.5L243.5 82.5L237.5 120.5L264 146.5L255 185M220 0V49.5L226.5 86L223.5 114L234 131.5L245 172.5M198.5 0V49.5L208 79.5L204 102.5L220 122.5L235 170M178.5 0V49.5L194 76.5V97.5L208 122.5L226.5 163M161 0V49.5L181.5 79.5V102.5L196.5 116L215.5 158M140 0V49.5L161 71.5L167 97.5M120 0V49.5L140 76.5L156.5 97.5L181.5 114L201.5 146.5M97 0V49.5L101 67.5L144.5 97.5L170.5 116L187.5 142M75.5 0V49.5V67.5L109.5 90L153 116M54 0V49.5L49.5 71.5L81.5 86L120 116L143 117.5M354 400V351.139C354 350.718 353.911 350.301 353.739 349.916L341.5 322.5L311.5 294.5L285.5 264M337 400V350.5L305.5 306.5L281 270.5L256 252.5L228.5 222.5M317 400V350.5L294.5 322.5L268.5 276.5L242 252.5L220 217M294.5 400V350.5L268.5 311L255 276.5L228.5 248L208 208.5M276.5 400V350.5L249.5 316L243.5 282L223.5 251M255 400V350.5L234 316L226.5 264M237.5 400V350.5L215.5 303V251L204 227.5L194 199.5L198.5 181L193 217L204 240L198.5 299L215.5 350.5V400M194 400V350.5L181.5 282L187.5 222.5L167 208.5L183 184L149.5 208.5L170.5 227.5L167 290.5L174 350.5V400M156.5 400V350.5L153 294.5L161 235L144.5 217M135.5 400V350.5V311L149.5 251L135.5 218.5M115.5 400V350.5V316L135.5 260L128 218.5L143 189M92.5 400V350.5L101 299L126 251L120 214.5M71 400V350.5L81.5 299L115.5 248V211.5M49.5 400V350.5L64 316L92.5 256M0.5 94H41L115.5 124.5L155 125.5M0.5 135.5H41L71 144L134.505 156.307M0.5 175.5H41H81.5H120L146 158L176 150.5M0.5 222.5H41L75.5 208.5L109.5 199.5L132 175.5L165 160.5M0.5 264H41L64 240L101 214.5L126 193L161 171.5M0.5 303H41L64 286.5L92.5 235L109.5 217M399 90H358.5L328.5 124.5M399 131.5H358.5L331 137.5L305.5 144L299 167L276.5 204M399 171.5H358.5H337H311.5L294.5 195L268.5 218.5M358.5 218.5H399M399 260H358.5L341.5 251L302 222.5L273 227.5L245 222.5M399 299H358.5L337 276.5L299 260L268.5 248L237.5 225.5M354 218.5L331 208.5L305.5 199.5L285.5 214.5M135.5 156.5L134.505 156.307M134.505 156.307L155 132.5L181.5 146.5" stroke="white" stroke-width="4"/>
</svg>
