<svg width="258" height="127" viewBox="0 0 258 127" fill="none" xmlns="http://www.w3.org/2000/svg">
<g id="Group 1">
<path id="Hardware" d="M58.896 77.04V43.296C58.896 42.768 58.464 42.336 57.936 42.336H55.488C54.96 42.336 54.528 42.768 54.528 43.296V57.216H38.112V43.296C38.112 42.768 37.68 42.336 37.152 42.336H34.704C34.176 42.336 33.744 42.768 33.744 43.296V77.04C33.744 77.568 34.176 78 34.704 78H37.152C37.68 78 38.112 77.568 38.112 77.04V61.104H54.528V77.04C54.528 77.568 54.96 78 55.488 78H57.936C58.464 78 58.896 77.568 58.896 77.04ZM84.273 77.04V60.288C84.273 54.624 81.585 51.264 74.913 51.264C71.649 51.264 69.441 51.552 67.473 51.888C66.801 51.984 66.465 52.272 66.465 52.8V54.48C66.465 55.104 66.897 55.248 67.329 55.248C67.425 55.248 67.473 55.248 67.569 55.248C69.489 55.056 71.793 54.864 74.913 54.864C78.657 54.864 80.049 56.256 80.049 60.288V62.208H76.497C67.953 62.208 64.929 64.8 64.929 69.984V70.56C64.929 76.56 68.673 78.336 72.753 78.336C75.441 78.336 77.841 77.328 80.145 75.984V77.04C80.145 77.568 80.577 78 81.105 78H83.313C83.841 78 84.273 77.568 84.273 77.04ZM80.049 72.96C77.745 74.208 75.777 74.88 73.569 74.88C70.785 74.88 69.153 73.968 69.153 70.512V69.936C69.153 66.528 70.689 65.232 76.497 65.232H80.049V72.96ZM102.636 54.096V52.128C102.636 51.552 102.3 51.264 101.628 51.264C99.4676 51.264 97.2596 51.888 94.8596 53.568V52.56C94.8596 52.032 94.4756 51.6 93.9476 51.6H91.6916C91.1636 51.6 90.7796 52.032 90.7796 52.56V77.04C90.7796 77.568 91.2116 78 91.6916 78H94.0436C94.5716 78 95.0036 77.52 95.0036 77.04V56.928C97.4036 55.488 99.4196 54.912 101.628 54.912C102.3 54.912 102.636 54.624 102.636 54.096ZM125.22 76.416V42.816C125.22 42.288 124.836 41.904 124.356 41.904H121.908C121.38 41.904 120.996 42.336 120.996 42.816V51.744C119.124 51.408 116.868 51.264 115.38 51.264C108.372 51.264 104.916 55.488 104.916 63.024V66.48C104.916 73.68 108.228 78.336 115.38 78.336C118.308 78.336 121.236 78.096 124.212 77.52C125.076 77.376 125.22 77.04 125.22 76.416ZM120.996 74.352C119.364 74.496 117.012 74.64 115.38 74.64C110.628 74.64 109.14 71.712 109.14 66.48V63.024C109.14 57.888 110.676 54.96 115.38 54.96C116.916 54.96 119.412 55.008 120.996 55.296V74.352ZM164.388 52.56C164.388 52.08 164.004 51.6 163.476 51.6H160.884C160.452 51.6 160.116 51.984 160.068 52.368L156.084 74.256C155.988 74.832 155.844 74.832 155.7 74.832C155.556 74.832 155.412 74.688 155.316 74.256L150.612 55.824C150.324 54.768 149.7 54.384 148.692 54.384H146.004C144.996 54.384 144.372 54.768 144.084 55.824L139.38 74.256C139.284 74.688 139.14 74.832 138.996 74.832C138.852 74.832 138.708 74.832 138.612 74.256L134.628 52.368C134.58 51.984 134.244 51.6 133.812 51.6H131.22C130.692 51.6 130.308 52.08 130.308 52.56C130.308 52.608 130.308 52.704 130.308 52.752L134.964 75.024C135.588 78 136.116 78.336 138.996 78.336C141.492 78.336 142.212 77.664 142.932 74.88L147.108 58.56C147.204 58.224 147.204 58.224 147.348 58.224C147.492 58.224 147.492 58.224 147.588 58.56L151.764 74.88C152.532 77.904 153.204 78.336 155.7 78.336C158.58 78.336 159.108 78.048 159.732 75.024L164.388 52.752C164.388 52.704 164.388 52.608 164.388 52.56ZM187.867 77.04V60.288C187.867 54.624 185.179 51.264 178.507 51.264C175.243 51.264 173.035 51.552 171.067 51.888C170.395 51.984 170.059 52.272 170.059 52.8V54.48C170.059 55.104 170.491 55.248 170.923 55.248C171.019 55.248 171.067 55.248 171.163 55.248C173.083 55.056 175.387 54.864 178.507 54.864C182.251 54.864 183.643 56.256 183.643 60.288V62.208H180.091C171.547 62.208 168.523 64.8 168.523 69.984V70.56C168.523 76.56 172.267 78.336 176.347 78.336C179.035 78.336 181.435 77.328 183.739 75.984V77.04C183.739 77.568 184.171 78 184.699 78H186.907C187.435 78 187.867 77.568 187.867 77.04ZM183.643 72.96C181.339 74.208 179.371 74.88 177.163 74.88C174.379 74.88 172.747 73.968 172.747 70.512V69.936C172.747 66.528 174.283 65.232 180.091 65.232H183.643V72.96ZM206.229 54.096V52.128C206.229 51.552 205.893 51.264 205.221 51.264C203.061 51.264 200.853 51.888 198.453 53.568V52.56C198.453 52.032 198.069 51.6 197.541 51.6H195.285C194.757 51.6 194.373 52.032 194.373 52.56V77.04C194.373 77.568 194.805 78 195.285 78H197.637C198.165 78 198.597 77.52 198.597 77.04V56.928C200.997 55.488 203.013 54.912 205.221 54.912C205.893 54.912 206.229 54.624 206.229 54.096ZM229.96 65.088V62.496C229.96 55.68 226.408 51.264 219.4 51.264C212.536 51.264 208.744 55.632 208.744 62.496V66.816C208.744 75.744 214.12 78.336 219.64 78.336C222.856 78.336 225.496 78.048 228.232 77.52C229 77.376 229.192 77.04 229.192 76.416V74.784C229.192 74.304 228.808 74.112 228.424 74.112C228.328 74.112 228.28 74.112 228.184 74.112C225.976 74.448 222.424 74.64 219.64 74.64C215.224 74.64 212.968 72.528 212.968 66.816V66.144H229.048C229.624 66.144 229.96 65.712 229.96 65.088ZM225.688 62.928H212.968V62.496C212.968 57.312 215.272 54.96 219.4 54.96C223.624 54.96 225.688 57.072 225.688 62.496V62.928Z" fill="lightskyblue"/>
<path id="Vector 1" d="M41 32.0725C86 1.07254 178 -5.40118 220 10.0725C262 25.5463 265 62.0725 239 86.0726" stroke="lightskyblue" stroke-width="4"/>
<path id="Vector 2" d="M218 97.0996C172.931 125.86 80.7911 131.867 38.7271 117.511C-3.33698 103.154 -6.34156 69.2665 19.6981 47" stroke="lightskyblue" stroke-width="4"/>
</g>
</svg>
